<?xml version="1.0" encoding="UTF-8"?>
<svg xmlns="http://www.w3.org/2000/svg" viewBox="0 0 2048 1216" width="2048" height="1216">
<defs>
<linearGradient id="water" x1="0" y1="0" x2="0" y2="1">
<stop offset="0%" stop-color="#4ee6ff"/>
<stop offset="55%" stop-color="#13b3ec"/>
<stop offset="100%" stop-color="#0874b7"/>
</linearGradient>
<pattern id="grid" width="32" height="32" patternUnits="userSpaceOnUse">
<path d="M 32 0 L 0 0 0 32" fill="none" stroke="#d8f7ff" stroke-width="1" opacity="0.22"/>
</pattern>
</defs>
<rect x="0" y="0" width="2048" height="1216" fill="url(#water)"/>
<rect x="224" y="288" width="384" height="576" rx="64" fill="#237fad" opacity="0.22"/>
<rect x="1472" y="352" width="352" height="544" rx="64" fill="#237fad" opacity="0.22"/>
<rect x="640" y="256" width="800" height="736" fill="#ffffff" opacity="0.08" stroke="#ffffff" stroke-width="4" stroke-dasharray="16 14"/>
<text x="652.0" y="290.0" fill="#eaffff" font-family="Arial, sans-serif" font-size="24" paint-order="stroke" stroke="#10384a" stroke-width="4">winding_tunnel_focus</text>
<rect x="128" y="128" width="1792" height="960" fill="#ffffff" opacity="0.08" stroke="#ffffff" stroke-width="4" stroke-dasharray="16 14"/>
<text x="140.0" y="162.0" fill="#eaffff" font-family="Arial, sans-serif" font-size="24" paint-order="stroke" stroke="#10384a" stroke-width="4">pillar_island_focus</text>
<rect x="0" y="0" width="2048" height="32" fill="#26333f" stroke="#8ea9b5" stroke-width="3"/>
<rect x="0" y="32" width="2048" height="32" fill="#26333f" stroke="#8ea9b5" stroke-width="3"/>
<rect x="0" y="64" width="96" height="32" fill="#26333f" stroke="#8ea9b5" stroke-width="3"/>
<rect x="352" y="64" width="96" height="32" fill="#26333f" stroke="#8ea9b5" stroke-width="3"/>
<rect x="704" y="64" width="96" height="32" fill="#26333f" stroke="#8ea9b5" stroke-width="3"/>
<rect x="1056" y="64" width="96" height="32" fill="#26333f" stroke="#8ea9b5" stroke-width="3"/>
<rect x="1408" y="64" width="96" height="32" fill="#26333f" stroke="#8ea9b5" stroke-width="3"/>
<rect x="1760" y="64" width="96" height="32" fill="#26333f" stroke="#8ea9b5" stroke-width="3"/>
<rect x="1984" y="64" width="64" height="32" fill="#26333f" stroke="#8ea9b5" stroke-width="3"/>
<rect x="0" y="96" width="64" height="32" fill="#26333f" stroke="#8ea9b5" stroke-width="3"/>
<rect x="1536" y="96" width="32" height="32" fill="#26333f" stroke="#8ea9b5" stroke-width="3"/>
<rect x="1984" y="96" width="64" height="32" fill="#26333f" stroke="#8ea9b5" stroke-width="3"/>
<rect x="0" y="128" width="64" height="32" fill="#26333f" stroke="#8ea9b5" stroke-width="3"/>
<rect x="960" y="128" width="32" height="32" fill="#26333f" stroke="#8ea9b5" stroke-width="3"/>
<rect x="1056" y="128" width="64" height="32" fill="#26333f" stroke="#8ea9b5" stroke-width="3"/>
<rect x="1184" y="128" width="32" height="32" fill="#26333f" stroke="#8ea9b5" stroke-width="3"/>
<rect x="1440" y="128" width="224" height="32" fill="#26333f" stroke="#8ea9b5" stroke-width="3"/>
<rect x="1952" y="128" width="96" height="32" fill="#26333f" stroke="#8ea9b5" stroke-width="3"/>
<rect x="0" y="160" width="64" height="32" fill="#26333f" stroke="#8ea9b5" stroke-width="3"/>
<rect x="288" y="160" width="192" height="32" fill="#26333f" stroke="#8ea9b5" stroke-width="3"/>
<rect x="928" y="160" width="64" height="32" fill="#26333f" stroke="#8ea9b5" stroke-width="3"/>
<rect x="1024" y="160" width="96" height="32" fill="#26333f" stroke="#8ea9b5" stroke-width="3"/>
<rect x="1152" y="160" width="64" height="32" fill="#26333f" stroke="#8ea9b5" stroke-width="3"/>
<rect x="1408" y="160" width="288" height="32" fill="#26333f" stroke="#8ea9b5" stroke-width="3"/>
<rect x="1952" y="160" width="96" height="32" fill="#26333f" stroke="#8ea9b5" stroke-width="3"/>
<rect x="0" y="192" width="64" height="32" fill="#26333f" stroke="#8ea9b5" stroke-width="3"/>
<rect x="320" y="192" width="160" height="32" fill="#26333f" stroke="#8ea9b5" stroke-width="3"/>
<rect x="896" y="192" width="64" height="32" fill="#26333f" stroke="#8ea9b5" stroke-width="3"/>
<rect x="1120" y="192" width="96" height="32" fill="#26333f" stroke="#8ea9b5" stroke-width="3"/>
<rect x="1280" y="192" width="32" height="32" fill="#26333f" stroke="#8ea9b5" stroke-width="3"/>
<rect x="1408" y="192" width="288" height="32" fill="#26333f" stroke="#8ea9b5" stroke-width="3"/>
<rect x="1760" y="192" width="32" height="32" fill="#26333f" stroke="#8ea9b5" stroke-width="3"/>
<rect x="1984" y="192" width="64" height="32" fill="#26333f" stroke="#8ea9b5" stroke-width="3"/>
<rect x="0" y="224" width="64" height="32" fill="#26333f" stroke="#8ea9b5" stroke-width="3"/>
<rect x="288" y="224" width="128" height="32" fill="#26333f" stroke="#8ea9b5" stroke-width="3"/>
<rect x="800" y="224" width="64" height="32" fill="#26333f" stroke="#8ea9b5" stroke-width="3"/>
<rect x="896" y="224" width="64" height="32" fill="#26333f" stroke="#8ea9b5" stroke-width="3"/>
<rect x="1184" y="224" width="128" height="32" fill="#26333f" stroke="#8ea9b5" stroke-width="3"/>
<rect x="1376" y="224" width="320" height="32" fill="#26333f" stroke="#8ea9b5" stroke-width="3"/>
<rect x="1984" y="224" width="64" height="32" fill="#26333f" stroke="#8ea9b5" stroke-width="3"/>
<rect x="0" y="256" width="96" height="32" fill="#26333f" stroke="#8ea9b5" stroke-width="3"/>
<rect x="288" y="256" width="128" height="32" fill="#26333f" stroke="#8ea9b5" stroke-width="3"/>
<rect x="800" y="256" width="160" height="32" fill="#26333f" stroke="#8ea9b5" stroke-width="3"/>
<rect x="1280" y="256" width="32" height="32" fill="#26333f" stroke="#8ea9b5" stroke-width="3"/>
<rect x="1376" y="256" width="320" height="32" fill="#26333f" stroke="#8ea9b5" stroke-width="3"/>
<rect x="1984" y="256" width="64" height="32" fill="#26333f" stroke="#8ea9b5" stroke-width="3"/>
<rect x="0" y="288" width="96" height="32" fill="#26333f" stroke="#8ea9b5" stroke-width="3"/>
<rect x="224" y="288" width="160" height="32" fill="#26333f" stroke="#8ea9b5" stroke-width="3"/>
<rect x="672" y="288" width="32" height="32" fill="#26333f" stroke="#8ea9b5" stroke-width="3"/>
<rect x="768" y="288" width="192" height="32" fill="#26333f" stroke="#8ea9b5" stroke-width="3"/>
<rect x="1312" y="288" width="32" height="32" fill="#26333f" stroke="#8ea9b5" stroke-width="3"/>
<rect x="1376" y="288" width="416" height="32" fill="#26333f" stroke="#8ea9b5" stroke-width="3"/>
<rect x="1984" y="288" width="64" height="32" fill="#26333f" stroke="#8ea9b5" stroke-width="3"/>
<rect x="0" y="320" width="96" height="32" fill="#26333f" stroke="#8ea9b5" stroke-width="3"/>
<rect x="224" y="320" width="160" height="32" fill="#26333f" stroke="#8ea9b5" stroke-width="3"/>
<rect x="672" y="320" width="288" height="32" fill="#26333f" stroke="#8ea9b5" stroke-width="3"/>
<rect x="1376" y="320" width="416" height="32" fill="#26333f" stroke="#8ea9b5" stroke-width="3"/>
<rect x="1984" y="320" width="64" height="32" fill="#26333f" stroke="#8ea9b5" stroke-width="3"/>
<rect x="0" y="352" width="64" height="32" fill="#26333f" stroke="#8ea9b5" stroke-width="3"/>
<rect x="192" y="352" width="224" height="32" fill="#26333f" stroke="#8ea9b5" stroke-width="3"/>
<rect x="640" y="352" width="320" height="32" fill="#26333f" stroke="#8ea9b5" stroke-width="3"/>
<rect x="1376" y="352" width="448" height="32" fill="#26333f" stroke="#8ea9b5" stroke-width="3"/>
<rect x="1952" y="352" width="96" height="32" fill="#26333f" stroke="#8ea9b5" stroke-width="3"/>
<rect x="0" y="384" width="64" height="32" fill="#26333f" stroke="#8ea9b5" stroke-width="3"/>
<rect x="256" y="384" width="160" height="32" fill="#26333f" stroke="#8ea9b5" stroke-width="3"/>
<rect x="608" y="384" width="160" height="32" fill="#26333f" stroke="#8ea9b5" stroke-width="3"/>
<rect x="800" y="384" width="224" height="32" fill="#26333f" stroke="#8ea9b5" stroke-width="3"/>
<rect x="1376" y="384" width="448" height="32" fill="#26333f" stroke="#8ea9b5" stroke-width="3"/>
<rect x="1952" y="384" width="96" height="32" fill="#26333f" stroke="#8ea9b5" stroke-width="3"/>
<rect x="0" y="416" width="64" height="32" fill="#26333f" stroke="#8ea9b5" stroke-width="3"/>
<rect x="256" y="416" width="160" height="32" fill="#26333f" stroke="#8ea9b5" stroke-width="3"/>
<rect x="544" y="416" width="32" height="32" fill="#26333f" stroke="#8ea9b5" stroke-width="3"/>
<rect x="608" y="416" width="96" height="32" fill="#26333f" stroke="#8ea9b5" stroke-width="3"/>
<rect x="864" y="416" width="256" height="32" fill="#26333f" stroke="#8ea9b5" stroke-width="3"/>
<rect x="1376" y="416" width="448" height="32" fill="#26333f" stroke="#8ea9b5" stroke-width="3"/>
<rect x="1984" y="416" width="64" height="32" fill="#26333f" stroke="#8ea9b5" stroke-width="3"/>
<rect x="0" y="448" width="64" height="32" fill="#26333f" stroke="#8ea9b5" stroke-width="3"/>
<rect x="288" y="448" width="160" height="32" fill="#26333f" stroke="#8ea9b5" stroke-width="3"/>
<rect x="480" y="448" width="192" height="32" fill="#26333f" stroke="#8ea9b5" stroke-width="3"/>
<rect x="896" y="448" width="224" height="32" fill="#26333f" stroke="#8ea9b5" stroke-width="3"/>
<rect x="1376" y="448" width="480" height="32" fill="#26333f" stroke="#8ea9b5" stroke-width="3"/>
<rect x="1984" y="448" width="64" height="32" fill="#26333f" stroke="#8ea9b5" stroke-width="3"/>
<rect x="0" y="480" width="64" height="32" fill="#26333f" stroke="#8ea9b5" stroke-width="3"/>
<rect x="256" y="480" width="384" height="32" fill="#26333f" stroke="#8ea9b5" stroke-width="3"/>
<rect x="928" y="480" width="96" height="32" fill="#26333f" stroke="#8ea9b5" stroke-width="3"/>
<rect x="1376" y="480" width="512" height="32" fill="#26333f" stroke="#8ea9b5" stroke-width="3"/>
<rect x="1984" y="480" width="64" height="32" fill="#26333f" stroke="#8ea9b5" stroke-width="3"/>
<rect x="0" y="512" width="96" height="32" fill="#26333f" stroke="#8ea9b5" stroke-width="3"/>
<rect x="224" y="512" width="448" height="32" fill="#26333f" stroke="#8ea9b5" stroke-width="3"/>
<rect x="896" y="512" width="64" height="32" fill="#26333f" stroke="#8ea9b5" stroke-width="3"/>
<rect x="1376" y="512" width="480" height="32" fill="#26333f" stroke="#8ea9b5" stroke-width="3"/>
<rect x="1984" y="512" width="64" height="32" fill="#26333f" stroke="#8ea9b5" stroke-width="3"/>
<rect x="0" y="544" width="96" height="32" fill="#26333f" stroke="#8ea9b5" stroke-width="3"/>
<rect x="288" y="544" width="416" height="32" fill="#26333f" stroke="#8ea9b5" stroke-width="3"/>
<rect x="864" y="544" width="32" height="32" fill="#26333f" stroke="#8ea9b5" stroke-width="3"/>
<rect x="1376" y="544" width="416" height="32" fill="#26333f" stroke="#8ea9b5" stroke-width="3"/>
<rect x="1984" y="544" width="64" height="32" fill="#26333f" stroke="#8ea9b5" stroke-width="3"/>
<rect x="0" y="576" width="96" height="32" fill="#26333f" stroke="#8ea9b5" stroke-width="3"/>
<rect x="224" y="576" width="576" height="32" fill="#26333f" stroke="#8ea9b5" stroke-width="3"/>
<rect x="1312" y="576" width="512" height="32" fill="#26333f" stroke="#8ea9b5" stroke-width="3"/>
<rect x="1952" y="576" width="96" height="32" fill="#26333f" stroke="#8ea9b5" stroke-width="3"/>
<rect x="0" y="608" width="64" height="32" fill="#26333f" stroke="#8ea9b5" stroke-width="3"/>
<rect x="224" y="608" width="608" height="32" fill="#26333f" stroke="#8ea9b5" stroke-width="3"/>
<rect x="1280" y="608" width="576" height="32" fill="#26333f" stroke="#8ea9b5" stroke-width="3"/>
<rect x="1952" y="608" width="96" height="32" fill="#26333f" stroke="#8ea9b5" stroke-width="3"/>
<rect x="0" y="640" width="64" height="32" fill="#26333f" stroke="#8ea9b5" stroke-width="3"/>
<rect x="192" y="640" width="640" height="32" fill="#26333f" stroke="#8ea9b5" stroke-width="3"/>
<rect x="1184" y="640" width="384" height="32" fill="#26333f" stroke="#8ea9b5" stroke-width="3"/>
<rect x="1600" y="640" width="256" height="32" fill="#26333f" stroke="#8ea9b5" stroke-width="3"/>
<rect x="1984" y="640" width="64" height="32" fill="#26333f" stroke="#8ea9b5" stroke-width="3"/>
<rect x="0" y="672" width="64" height="32" fill="#26333f" stroke="#8ea9b5" stroke-width="3"/>
<rect x="224" y="672" width="544" height="32" fill="#26333f" stroke="#8ea9b5" stroke-width="3"/>
<rect x="1120" y="672" width="448" height="32" fill="#26333f" stroke="#8ea9b5" stroke-width="3"/>
<rect x="1632" y="672" width="224" height="32" fill="#26333f" stroke="#8ea9b5" stroke-width="3"/>
<rect x="1984" y="672" width="64" height="32" fill="#26333f" stroke="#8ea9b5" stroke-width="3"/>
<rect x="0" y="704" width="64" height="32" fill="#26333f" stroke="#8ea9b5" stroke-width="3"/>
<rect x="256" y="704" width="448" height="32" fill="#26333f" stroke="#8ea9b5" stroke-width="3"/>
<rect x="1056" y="704" width="512" height="32" fill="#26333f" stroke="#8ea9b5" stroke-width="3"/>
<rect x="1664" y="704" width="160" height="32" fill="#26333f" stroke="#8ea9b5" stroke-width="3"/>
<rect x="1984" y="704" width="64" height="32" fill="#26333f" stroke="#8ea9b5" stroke-width="3"/>
<rect x="0" y="736" width="64" height="32" fill="#26333f" stroke="#8ea9b5" stroke-width="3"/>
<rect x="288" y="736" width="416" height="32" fill="#26333f" stroke="#8ea9b5" stroke-width="3"/>
<rect x="960" y="736" width="608" height="32" fill="#26333f" stroke="#8ea9b5" stroke-width="3"/>
<rect x="1696" y="736" width="160" height="32" fill="#26333f" stroke="#8ea9b5" stroke-width="3"/>
<rect x="1984" y="736" width="64" height="32" fill="#26333f" stroke="#8ea9b5" stroke-width="3"/>
<rect x="0" y="768" width="96" height="32" fill="#26333f" stroke="#8ea9b5" stroke-width="3"/>
<rect x="320" y="768" width="384" height="32" fill="#26333f" stroke="#8ea9b5" stroke-width="3"/>
<rect x="960" y="768" width="576" height="32" fill="#26333f" stroke="#8ea9b5" stroke-width="3"/>
<rect x="1728" y="768" width="96" height="32" fill="#26333f" stroke="#8ea9b5" stroke-width="3"/>
<rect x="1984" y="768" width="64" height="32" fill="#26333f" stroke="#8ea9b5" stroke-width="3"/>
<rect x="0" y="800" width="96" height="32" fill="#26333f" stroke="#8ea9b5" stroke-width="3"/>
<rect x="320" y="800" width="384" height="32" fill="#26333f" stroke="#8ea9b5" stroke-width="3"/>
<rect x="1056" y="800" width="480" height="32" fill="#26333f" stroke="#8ea9b5" stroke-width="3"/>
<rect x="1632" y="800" width="224" height="32" fill="#26333f" stroke="#8ea9b5" stroke-width="3"/>
<rect x="1952" y="800" width="96" height="32" fill="#26333f" stroke="#8ea9b5" stroke-width="3"/>
<rect x="0" y="832" width="96" height="32" fill="#26333f" stroke="#8ea9b5" stroke-width="3"/>
<rect x="256" y="832" width="448" height="32" fill="#26333f" stroke="#8ea9b5" stroke-width="3"/>
<rect x="1120" y="832" width="320" height="32" fill="#26333f" stroke="#8ea9b5" stroke-width="3"/>
<rect x="1472" y="832" width="32" height="32" fill="#26333f" stroke="#8ea9b5" stroke-width="3"/>
<rect x="1632" y="832" width="224" height="32" fill="#26333f" stroke="#8ea9b5" stroke-width="3"/>
<rect x="1952" y="832" width="96" height="32" fill="#26333f" stroke="#8ea9b5" stroke-width="3"/>
<rect x="0" y="864" width="64" height="32" fill="#26333f" stroke="#8ea9b5" stroke-width="3"/>
<rect x="192" y="864" width="512" height="32" fill="#26333f" stroke="#8ea9b5" stroke-width="3"/>
<rect x="1184" y="864" width="224" height="32" fill="#26333f" stroke="#8ea9b5" stroke-width="3"/>
<rect x="1600" y="864" width="192" height="32" fill="#26333f" stroke="#8ea9b5" stroke-width="3"/>
<rect x="1984" y="864" width="64" height="32" fill="#26333f" stroke="#8ea9b5" stroke-width="3"/>
<rect x="0" y="896" width="64" height="32" fill="#26333f" stroke="#8ea9b5" stroke-width="3"/>
<rect x="192" y="896" width="128" height="32" fill="#26333f" stroke="#8ea9b5" stroke-width="3"/>
<rect x="384" y="896" width="384" height="32" fill="#26333f" stroke="#8ea9b5" stroke-width="3"/>
<rect x="1280" y="896" width="128" height="32" fill="#26333f" stroke="#8ea9b5" stroke-width="3"/>
<rect x="1472" y="896" width="320" height="32" fill="#26333f" stroke="#8ea9b5" stroke-width="3"/>
<rect x="1984" y="896" width="64" height="32" fill="#26333f" stroke="#8ea9b5" stroke-width="3"/>
<rect x="0" y="928" width="64" height="32" fill="#26333f" stroke="#8ea9b5" stroke-width="3"/>
<rect x="384" y="928" width="416" height="32" fill="#26333f" stroke="#8ea9b5" stroke-width="3"/>
<rect x="1280" y="928" width="96" height="32" fill="#26333f" stroke="#8ea9b5" stroke-width="3"/>
<rect x="1440" y="928" width="352" height="32" fill="#26333f" stroke="#8ea9b5" stroke-width="3"/>
<rect x="1984" y="928" width="64" height="32" fill="#26333f" stroke="#8ea9b5" stroke-width="3"/>
<rect x="0" y="960" width="64" height="32" fill="#26333f" stroke="#8ea9b5" stroke-width="3"/>
<rect x="384" y="960" width="352" height="32" fill="#26333f" stroke="#8ea9b5" stroke-width="3"/>
<rect x="768" y="960" width="32" height="32" fill="#26333f" stroke="#8ea9b5" stroke-width="3"/>
<rect x="832" y="960" width="64" height="32" fill="#26333f" stroke="#8ea9b5" stroke-width="3"/>
<rect x="1280" y="960" width="96" height="32" fill="#26333f" stroke="#8ea9b5" stroke-width="3"/>
<rect x="1440" y="960" width="352" height="32" fill="#26333f" stroke="#8ea9b5" stroke-width="3"/>
<rect x="1824" y="960" width="32" height="32" fill="#26333f" stroke="#8ea9b5" stroke-width="3"/>
<rect x="1984" y="960" width="64" height="32" fill="#26333f" stroke="#8ea9b5" stroke-width="3"/>
<rect x="0" y="992" width="64" height="32" fill="#26333f" stroke="#8ea9b5" stroke-width="3"/>
<rect x="256" y="992" width="448" height="32" fill="#26333f" stroke="#8ea9b5" stroke-width="3"/>
<rect x="832" y="992" width="128" height="32" fill="#26333f" stroke="#8ea9b5" stroke-width="3"/>
<rect x="1440" y="992" width="288" height="32" fill="#26333f" stroke="#8ea9b5" stroke-width="3"/>
<rect x="1984" y="992" width="64" height="32" fill="#26333f" stroke="#8ea9b5" stroke-width="3"/>
<rect x="0" y="1024" width="96" height="32" fill="#26333f" stroke="#8ea9b5" stroke-width="3"/>
<rect x="256" y="1024" width="288" height="32" fill="#26333f" stroke="#8ea9b5" stroke-width="3"/>
<rect x="832" y="1024" width="64" height="32" fill="#26333f" stroke="#8ea9b5" stroke-width="3"/>
<rect x="928" y="1024" width="96" height="32" fill="#26333f" stroke="#8ea9b5" stroke-width="3"/>
<rect x="1440" y="1024" width="256" height="32" fill="#26333f" stroke="#8ea9b5" stroke-width="3"/>
<rect x="1952" y="1024" width="96" height="32" fill="#26333f" stroke="#8ea9b5" stroke-width="3"/>
<rect x="0" y="1056" width="96" height="32" fill="#26333f" stroke="#8ea9b5" stroke-width="3"/>
<rect x="256" y="1056" width="224" height="32" fill="#26333f" stroke="#8ea9b5" stroke-width="3"/>
<rect x="960" y="1056" width="192" height="32" fill="#26333f" stroke="#8ea9b5" stroke-width="3"/>
<rect x="1184" y="1056" width="64" height="32" fill="#26333f" stroke="#8ea9b5" stroke-width="3"/>
<rect x="1536" y="1056" width="64" height="32" fill="#26333f" stroke="#8ea9b5" stroke-width="3"/>
<rect x="1952" y="1056" width="96" height="32" fill="#26333f" stroke="#8ea9b5" stroke-width="3"/>
<rect x="0" y="1088" width="96" height="32" fill="#26333f" stroke="#8ea9b5" stroke-width="3"/>
<rect x="352" y="1088" width="64" height="32" fill="#26333f" stroke="#8ea9b5" stroke-width="3"/>
<rect x="960" y="1088" width="160" height="32" fill="#26333f" stroke="#8ea9b5" stroke-width="3"/>
<rect x="1984" y="1088" width="64" height="32" fill="#26333f" stroke="#8ea9b5" stroke-width="3"/>
<rect x="0" y="1120" width="192" height="32" fill="#26333f" stroke="#8ea9b5" stroke-width="3"/>
<rect x="384" y="1120" width="96" height="32" fill="#26333f" stroke="#8ea9b5" stroke-width="3"/>
<rect x="672" y="1120" width="96" height="32" fill="#26333f" stroke="#8ea9b5" stroke-width="3"/>
<rect x="960" y="1120" width="96" height="32" fill="#26333f" stroke="#8ea9b5" stroke-width="3"/>
<rect x="1248" y="1120" width="96" height="32" fill="#26333f" stroke="#8ea9b5" stroke-width="3"/>
<rect x="1536" y="1120" width="96" height="32" fill="#26333f" stroke="#8ea9b5" stroke-width="3"/>
<rect x="1824" y="1120" width="96" height="32" fill="#26333f" stroke="#8ea9b5" stroke-width="3"/>
<rect x="1984" y="1120" width="64" height="32" fill="#26333f" stroke="#8ea9b5" stroke-width="3"/>
<rect x="0" y="1152" width="2048" height="32" fill="#26333f" stroke="#8ea9b5" stroke-width="3"/>
<rect x="0" y="1184" width="2048" height="32" fill="#26333f" stroke="#8ea9b5" stroke-width="3"/>
<circle cx="208.0" cy="208.0" r="18" fill="#29d66f" stroke="#08351c" stroke-width="5"/>
<text x="232.0" y="218.0" fill="#eaffff" font-family="Arial, sans-serif" font-size="22" paint-order="stroke" stroke="#10384a" stroke-width="4">START</text>
<polygon points="912.0,159.0 929.0,176.0 912.0,193.0 895.0,176.0" fill="#ffd34a" stroke="#7f5b00" stroke-width="5"/>
<polygon points="1040.0,607.0 1057.0,624.0 1040.0,641.0 1023.0,624.0" fill="#ffd34a" stroke="#7f5b00" stroke-width="5"/>
<polygon points="1456.0,863.0 1473.0,880.0 1456.0,897.0 1439.0,880.0" fill="#ffd34a" stroke="#7f5b00" stroke-width="5"/>
<circle cx="272.0" cy="560.0" r="19" fill="#ff4b5f" stroke="#64121d" stroke-width="5"/>
<line x1="260.0" y1="548.0" x2="284.0" y2="572.0" stroke="#ffffff" stroke-width="5"/>
<line x1="284.0" y1="548.0" x2="260.0" y2="572.0" stroke="#ffffff" stroke-width="5"/>
<circle cx="1584.0" cy="656.0" r="19" fill="#ff4b5f" stroke="#64121d" stroke-width="5"/>
<line x1="1572.0" y1="644.0" x2="1596.0" y2="668.0" stroke="#ffffff" stroke-width="5"/>
<line x1="1596.0" y1="644.0" x2="1572.0" y2="668.0" stroke="#ffffff" stroke-width="5"/>
<rect x="0" y="0" width="2048" height="1216" fill="url(#grid)"/>
<text x="24.0" y="42.0" fill="#eaffff" font-family="Arial, sans-serif" font-size="30" paint-order="stroke" stroke="#10384a" stroke-width="4">cave_tileset_test_01 - greybox source preview</text>
<text x="24.0" y="1192.0" fill="#eaffff" font-family="Arial, sans-serif" font-size="24" paint-order="stroke" stroke="#10384a" stroke-width="4">cyan=open water | gray=solid | tan=extraction | green=start | yellow=salvage | red=hazard</text>
</svg>
